<svg xmlns="http://www.w3.org/2000/svg" xmlns:xlink="http://www.w3.org/1999/xlink" width="500" zoomAndPan="magnify" viewBox="0 0 375 374.999991" height="500" preserveAspectRatio="xMidYMid meet" version="1.0"><defs><g/><clipPath id="5ae378fe0c"><path d="M 7.738281 7.738281 L 367.261719 7.738281 L 367.261719 367.261719 L 7.738281 367.261719 Z M 7.738281 7.738281 " clip-rule="nonzero"/></clipPath><clipPath id="1d7e75041c"><path d="M 187.5 7.738281 C 88.222656 7.738281 7.738281 88.222656 7.738281 187.5 C 7.738281 286.777344 88.222656 367.261719 187.5 367.261719 C 286.777344 367.261719 367.261719 286.777344 367.261719 187.5 C 367.261719 88.222656 286.777344 7.738281 187.5 7.738281 Z M 187.5 7.738281 " clip-rule="nonzero"/></clipPath><clipPath id="96a184f022"><path d="M 64.3125 71 L 310.449219 71 L 310.449219 305 L 64.3125 305 Z M 64.3125 71 " clip-rule="nonzero"/></clipPath></defs><g clip-path="url(#5ae378fe0c)"><g clip-path="url(#1d7e75041c)"><path fill="#4dc591" d="M 7.738281 7.738281 L 367.261719 7.738281 L 367.261719 367.261719 L 7.738281 367.261719 Z M 7.738281 7.738281 " fill-opacity="1" fill-rule="nonzero"/></g></g><g clip-path="url(#96a184f022)"><path fill="#ffffff" d="M 271.949219 205.445312 C 271.949219 209.824219 269.148438 213.710938 264.992188 215.101562 C 245.167969 221.691406 217.75 225.765625 187.480469 225.765625 C 157.222656 225.765625 129.804688 221.691406 109.96875 215.101562 C 105.828125 213.710938 103.015625 209.824219 103.015625 205.445312 L 103.015625 120.828125 C 103.015625 115.699219 107.167969 111.546875 112.304688 111.546875 L 262.667969 111.546875 C 267.804688 111.546875 271.949219 115.699219 271.949219 120.828125 Z M 271.949219 246.214844 C 271.949219 256.550781 262.171875 264.9375 250.117188 264.9375 L 222.859375 264.9375 C 216.488281 264.9375 214.453125 257.585938 220.148438 255.132812 L 263.503906 236.476562 C 267.378906 234.808594 271.949219 237.222656 271.949219 240.949219 Z M 152.105469 264.9375 L 124.847656 264.9375 C 112.792969 264.9375 103.015625 256.550781 103.015625 246.214844 L 103.015625 240.949219 C 103.015625 237.222656 107.585938 234.808594 111.460938 236.476562 L 154.816406 255.132812 C 160.511719 257.585938 158.472656 264.9375 152.105469 264.9375 Z M 142.761719 85.996094 C 142.761719 84.464844 144.003906 83.230469 145.527344 83.230469 L 229.449219 83.230469 C 230.96875 83.230469 232.199219 84.464844 232.199219 85.996094 L 232.199219 99.351562 C 232.199219 100.882812 230.96875 102.113281 229.449219 102.113281 L 145.527344 102.113281 C 144.003906 102.113281 142.761719 100.882812 142.761719 99.351562 Z M 306.273438 130.425781 L 303.671875 130.425781 L 303.671875 128.09375 C 303.671875 123.722656 300.117188 120.167969 295.742188 120.167969 L 285.941406 120.167969 L 285.941406 97.484375 C 285.941406 94.5 285.285156 91.667969 284.132812 89.117188 C 281.449219 83.152344 275.796875 79.097656 269.386719 77.828125 C 268.195312 77.585938 267.003906 77.359375 265.820312 77.140625 C 227.976562 70.175781 187.480469 71.664062 187.480469 71.664062 C 187.480469 71.664062 146.988281 70.175781 109.15625 77.140625 C 107.960938 77.359375 106.78125 77.585938 105.585938 77.828125 C 99.179688 79.097656 93.523438 83.152344 90.828125 89.117188 C 89.6875 91.667969 89.03125 94.5 89.03125 97.484375 L 89.03125 120.167969 L 79.230469 120.167969 C 74.859375 120.167969 71.300781 123.722656 71.300781 128.09375 L 71.300781 130.425781 L 68.699219 130.425781 C 66.292969 130.425781 64.347656 132.375 64.347656 134.777344 L 64.347656 168.8125 C 64.347656 171.21875 66.292969 173.167969 68.699219 173.167969 L 79.867188 173.167969 C 82.269531 173.167969 84.21875 171.21875 84.21875 168.8125 L 84.21875 134.777344 C 84.21875 132.375 82.269531 130.425781 79.867188 130.425781 L 77.265625 130.425781 L 77.265625 128.09375 C 77.265625 127.011719 78.144531 126.128906 79.230469 126.128906 L 89.03125 126.128906 L 89.03125 257.992188 C 89.03125 268.652344 95.367188 277.820312 104.472656 281.964844 L 104.472656 299.628906 C 104.472656 302.507812 106.804688 304.835938 109.679688 304.835938 L 136.769531 304.835938 C 139.648438 304.835938 141.980469 302.507812 141.980469 299.628906 L 141.980469 284.324219 L 232.996094 284.324219 L 232.996094 299.628906 C 232.996094 302.507812 235.328125 304.835938 238.203125 304.835938 L 265.292969 304.835938 C 268.171875 304.835938 270.503906 302.507812 270.503906 299.628906 L 270.503906 281.964844 C 279.605469 277.820312 285.941406 268.652344 285.941406 257.992188 L 285.941406 126.128906 L 295.742188 126.128906 C 296.828125 126.128906 297.707031 127.011719 297.707031 128.09375 L 297.707031 130.425781 L 295.105469 130.425781 C 292.703125 130.425781 290.753906 132.375 290.753906 134.777344 L 290.753906 168.8125 C 290.753906 171.21875 292.703125 173.167969 295.105469 173.167969 L 306.273438 173.167969 C 308.679688 173.167969 310.628906 171.21875 310.628906 168.8125 L 310.628906 134.777344 C 310.628906 132.375 308.679688 130.425781 306.273438 130.425781 " fill-opacity="1" fill-rule="nonzero"/></g><g fill="#ffffff" fill-opacity="1"><g transform="translate(113.43666, 178.45813)"><g><path d="M 22.78125 -28.203125 L 22.78125 -22.703125 L 15.3125 -22.703125 L 15.3125 0 L 8.4375 0 L 8.4375 -22.703125 L 0.96875 -22.703125 L 0.96875 -28.203125 Z M 22.78125 -28.203125 "/></g></g></g><g fill="#ffffff" fill-opacity="1"><g transform="translate(137.177214, 178.45813)"><g><path d="M 1.125 -11.25 C 1.125 -13.550781 1.554688 -15.570312 2.421875 -17.3125 C 3.296875 -19.050781 4.484375 -20.390625 5.984375 -21.328125 C 7.484375 -22.265625 9.15625 -22.734375 11 -22.734375 C 12.582031 -22.734375 13.96875 -22.410156 15.15625 -21.765625 C 16.351562 -21.128906 17.273438 -20.289062 17.921875 -19.25 L 17.921875 -22.421875 L 24.78125 -22.421875 L 24.78125 0 L 17.921875 0 L 17.921875 -3.171875 C 17.242188 -2.128906 16.3125 -1.285156 15.125 -0.640625 C 13.9375 0.00390625 12.550781 0.328125 10.96875 0.328125 C 9.144531 0.328125 7.484375 -0.144531 5.984375 -1.09375 C 4.484375 -2.050781 3.296875 -3.40625 2.421875 -5.15625 C 1.554688 -6.914062 1.125 -8.945312 1.125 -11.25 Z M 17.921875 -11.203125 C 17.921875 -12.921875 17.441406 -14.273438 16.484375 -15.265625 C 15.535156 -16.253906 14.378906 -16.75 13.015625 -16.75 C 11.648438 -16.75 10.488281 -16.257812 9.53125 -15.28125 C 8.582031 -14.300781 8.109375 -12.957031 8.109375 -11.25 C 8.109375 -9.53125 8.582031 -8.171875 9.53125 -7.171875 C 10.488281 -6.171875 11.648438 -5.671875 13.015625 -5.671875 C 14.378906 -5.671875 15.535156 -6.164062 16.484375 -7.15625 C 17.441406 -8.144531 17.921875 -9.492188 17.921875 -11.203125 Z M 17.921875 -11.203125 "/></g></g></g><g fill="#ffffff" fill-opacity="1"><g transform="translate(164.452739, 178.45813)"><g><path d="M 1.125 -11.25 C 1.125 -13.550781 1.554688 -15.570312 2.421875 -17.3125 C 3.296875 -19.050781 4.484375 -20.390625 5.984375 -21.328125 C 7.484375 -22.265625 9.15625 -22.734375 11 -22.734375 C 12.582031 -22.734375 13.96875 -22.410156 15.15625 -21.765625 C 16.351562 -21.128906 17.273438 -20.289062 17.921875 -19.25 L 17.921875 -22.421875 L 24.78125 -22.421875 L 24.78125 0 L 17.921875 0 L 17.921875 -3.171875 C 17.242188 -2.128906 16.3125 -1.285156 15.125 -0.640625 C 13.9375 0.00390625 12.550781 0.328125 10.96875 0.328125 C 9.144531 0.328125 7.484375 -0.144531 5.984375 -1.09375 C 4.484375 -2.050781 3.296875 -3.40625 2.421875 -5.15625 C 1.554688 -6.914062 1.125 -8.945312 1.125 -11.25 Z M 17.921875 -11.203125 C 17.921875 -12.921875 17.441406 -14.273438 16.484375 -15.265625 C 15.535156 -16.253906 14.378906 -16.75 13.015625 -16.75 C 11.648438 -16.75 10.488281 -16.257812 9.53125 -15.28125 C 8.582031 -14.300781 8.109375 -12.957031 8.109375 -11.25 C 8.109375 -9.53125 8.582031 -8.171875 9.53125 -7.171875 C 10.488281 -6.171875 11.648438 -5.671875 13.015625 -5.671875 C 14.378906 -5.671875 15.535156 -6.164062 16.484375 -7.15625 C 17.441406 -8.144531 17.921875 -9.492188 17.921875 -11.203125 Z M 17.921875 -11.203125 "/></g></g></g><g fill="#ffffff" fill-opacity="1"><g transform="translate(191.728264, 178.45813)"><g><path d="M 31.09375 -22.65625 C 33.875 -22.65625 36.085938 -21.8125 37.734375 -20.125 C 39.390625 -18.4375 40.21875 -16.09375 40.21875 -13.09375 L 40.21875 0 L 33.390625 0 L 33.390625 -12.171875 C 33.390625 -13.617188 33.003906 -14.738281 32.234375 -15.53125 C 31.472656 -16.320312 30.421875 -16.71875 29.078125 -16.71875 C 27.742188 -16.71875 26.691406 -16.320312 25.921875 -15.53125 C 25.160156 -14.738281 24.78125 -13.617188 24.78125 -12.171875 L 24.78125 0 L 17.953125 0 L 17.953125 -12.171875 C 17.953125 -13.617188 17.570312 -14.738281 16.8125 -15.53125 C 16.050781 -16.320312 15 -16.71875 13.65625 -16.71875 C 12.320312 -16.71875 11.269531 -16.320312 10.5 -15.53125 C 9.738281 -14.738281 9.359375 -13.617188 9.359375 -12.171875 L 9.359375 0 L 2.484375 0 L 2.484375 -22.421875 L 9.359375 -22.421875 L 9.359375 -19.609375 C 10.054688 -20.546875 10.96875 -21.285156 12.09375 -21.828125 C 13.21875 -22.378906 14.488281 -22.65625 15.90625 -22.65625 C 17.59375 -22.65625 19.097656 -22.289062 20.421875 -21.5625 C 21.753906 -20.84375 22.796875 -19.816406 23.546875 -18.484375 C 24.316406 -19.710938 25.367188 -20.710938 26.703125 -21.484375 C 28.046875 -22.265625 29.507812 -22.65625 31.09375 -22.65625 Z M 31.09375 -22.65625 "/></g></g></g><g fill="#ffffff" fill-opacity="1"><g transform="translate(234.268456, 178.45813)"><g><path d="M 1.125 -11.25 C 1.125 -13.550781 1.554688 -15.570312 2.421875 -17.3125 C 3.296875 -19.050781 4.484375 -20.390625 5.984375 -21.328125 C 7.484375 -22.265625 9.15625 -22.734375 11 -22.734375 C 12.582031 -22.734375 13.96875 -22.410156 15.15625 -21.765625 C 16.351562 -21.128906 17.273438 -20.289062 17.921875 -19.25 L 17.921875 -22.421875 L 24.78125 -22.421875 L 24.78125 0 L 17.921875 0 L 17.921875 -3.171875 C 17.242188 -2.128906 16.3125 -1.285156 15.125 -0.640625 C 13.9375 0.00390625 12.550781 0.328125 10.96875 0.328125 C 9.144531 0.328125 7.484375 -0.144531 5.984375 -1.09375 C 4.484375 -2.050781 3.296875 -3.40625 2.421875 -5.15625 C 1.554688 -6.914062 1.125 -8.945312 1.125 -11.25 Z M 17.921875 -11.203125 C 17.921875 -12.921875 17.441406 -14.273438 16.484375 -15.265625 C 15.535156 -16.253906 14.378906 -16.75 13.015625 -16.75 C 11.648438 -16.75 10.488281 -16.257812 9.53125 -15.28125 C 8.582031 -14.300781 8.109375 -12.957031 8.109375 -11.25 C 8.109375 -9.53125 8.582031 -8.171875 9.53125 -7.171875 C 10.488281 -6.171875 11.648438 -5.671875 13.015625 -5.671875 C 14.378906 -5.671875 15.535156 -6.164062 16.484375 -7.15625 C 17.441406 -8.144531 17.921875 -9.492188 17.921875 -11.203125 Z M 17.921875 -11.203125 "/></g></g></g></svg>