<svg width="512" height="512" viewBox="0 0 512 512" fill="none" xmlns="http://www.w3.org/2000/svg">
<g clip-path="url(#clip0_389_646)">
<mask id="mask0_389_646" style="mask-type:luminance" maskUnits="userSpaceOnUse" x="0" y="1" width="511" height="511">
<path d="M0 1.224H510.807V512H0V1.224Z" fill="white"/>
</mask>
<g mask="url(#mask0_389_646)">
</g>
<mask id="mask1_389_646" style="mask-type:luminance" maskUnits="userSpaceOnUse" x="0" y="1" width="511" height="512">
<path d="M255.406 1.224C114.349 1.224 0 115.568 0 256.625C0 397.682 114.349 512.031 255.406 512.031C396.458 512.031 510.807 397.682 510.807 256.625C510.807 115.568 396.458 1.224 255.406 1.224Z" fill="white"/>
</mask>
<g mask="url(#mask1_389_646)">
<path d="M0 1.224H510.807V512.031H0V1.224Z" fill="#4DC591"/>
<path d="M94.0654 267.713C94.0654 258.687 95.7633 250.765 99.1696 243.943C102.586 237.125 107.232 231.88 113.107 228.213C118.982 224.536 125.534 222.693 132.774 222.693C138.951 222.693 144.378 223.958 149.045 226.484C153.722 229 157.321 232.307 159.836 236.401V223.963H186.753V311.776H159.836V299.338C157.211 303.437 153.565 306.745 148.899 309.255C144.232 311.771 138.8 313.026 132.607 313.026C125.482 313.026 118.982 311.166 113.107 307.443C107.232 303.724 102.586 298.432 99.1696 291.568C95.7633 284.693 94.0654 276.745 94.0654 267.713ZM159.836 267.859C159.836 261.151 157.972 255.859 154.253 251.984C150.529 248.099 145.987 246.151 140.628 246.151C135.279 246.151 130.743 248.068 127.024 251.901C123.3 255.724 121.44 260.995 121.44 267.713C121.44 274.422 123.3 279.75 127.024 283.693C130.743 287.625 135.279 289.588 140.628 289.588C145.987 289.588 150.529 287.651 154.253 283.776C157.972 279.89 159.836 274.583 159.836 267.859Z" fill="white"/>
<mask id="mask2_389_646" style="mask-type:luminance" maskUnits="userSpaceOnUse" x="171" y="219" width="91" height="97">
<path d="M171.901 219.604H261.021V316H171.901V219.604Z" fill="white"/>
</mask>
<g mask="url(#mask2_389_646)">
</g>
<mask id="mask3_389_646" style="mask-type:luminance" maskUnits="userSpaceOnUse" x="171" y="219" width="91" height="97">
<path d="M216.459 219.604C191.849 219.604 171.901 241.12 171.901 267.661C171.901 294.203 191.849 315.719 216.459 315.719C241.068 315.719 261.021 294.203 261.021 267.661C261.021 241.12 241.068 219.604 216.459 219.604Z" fill="white"/>
</mask>
<g mask="url(#mask3_389_646)">
<path d="M171.901 219.604H261.021V315.687H171.901V219.604Z" fill="#4DC591"/>
</g>
<mask id="mask4_389_646" style="mask-type:luminance" maskUnits="userSpaceOnUse" x="106" y="231" width="59" height="79">
<path d="M106.557 231.724H164.88V309.333H106.557V231.724Z" fill="white"/>
</mask>
<g mask="url(#mask4_389_646)">
<mask id="mask5_389_646" style="mask-type:luminance" maskUnits="userSpaceOnUse" x="106" y="231" width="59" height="79">
<path d="M135.718 231.724C119.614 231.724 106.557 249.094 106.557 270.521C106.557 291.948 119.614 309.318 135.718 309.318C151.822 309.318 164.88 291.948 164.88 270.521C164.88 249.094 151.822 231.724 135.718 231.724Z" fill="white"/>
</mask>
<g mask="url(#mask5_389_646)">
<path d="M106.557 231.724H164.88V309.406H106.557V231.724Z" fill="white"/>
</g>
</g>
<mask id="mask6_389_646" style="mask-type:luminance" maskUnits="userSpaceOnUse" x="161" y="-1" width="189" height="513">
<path d="M161.631 -0.223877H349.178V511.776H161.631V-0.223877Z" fill="white"/>
</mask>
<g mask="url(#mask6_389_646)">
</g>
<mask id="mask7_389_646" style="mask-type:luminance" maskUnits="userSpaceOnUse" x="161" y="-1" width="189" height="513">
<path d="M201.886 -0.223877H308.923L349.178 511.807H161.631L201.886 -0.223877Z" fill="white"/>
</mask>
<g mask="url(#mask7_389_646)">
<path d="M161.631 -0.223877H349.178V511.859H161.631V-0.223877Z" fill="#868484"/>
</g>
<mask id="mask8_389_646" style="mask-type:luminance" maskUnits="userSpaceOnUse" x="249" y="436" width="13" height="76">
<path d="M249.558 436.318H261.25V511.776H249.558V436.318Z" fill="white"/>
</mask>
<g mask="url(#mask8_389_646)">
<path d="M249.558 436.318H261.25V511.813H249.558V436.318Z" fill="white"/>
</g>
<mask id="mask9_389_646" style="mask-type:luminance" maskUnits="userSpaceOnUse" x="249" y="323" width="13" height="89">
<path d="M249.558 323.807H261.25V411.234H249.558V323.807Z" fill="white"/>
</mask>
<g mask="url(#mask9_389_646)">
<path d="M249.558 323.807H261.25V411.224H249.558V323.807Z" fill="white"/>
</g>
<mask id="mask10_389_646" style="mask-type:luminance" maskUnits="userSpaceOnUse" x="249" y="118" width="13" height="89">
<path d="M249.558 118.792H261.25V206.219H249.558V118.792Z" fill="white"/>
</mask>
<g mask="url(#mask10_389_646)">
<path d="M249.558 118.792H261.25V206.208H249.558V118.792Z" fill="white"/>
</g>
<mask id="mask11_389_646" style="mask-type:luminance" maskUnits="userSpaceOnUse" x="249" y="7" width="13" height="88">
<path d="M249.558 7.22412H261.25V94.6512H249.558V7.22412Z" fill="white"/>
</mask>
<g mask="url(#mask11_389_646)">
<path d="M249.558 7.22412H261.25V94.6356H249.558V7.22412Z" fill="white"/>
</g>
<path d="M111.881 200.796V222.359H82.6099V311.276H55.6932V222.359H26.4224V200.796H111.881Z" fill="white"/>
<path d="M176.26 267.713C176.26 258.687 177.958 250.765 181.364 243.943C184.781 237.125 189.426 231.88 195.301 228.213C201.176 224.536 207.729 222.693 214.968 222.693C221.145 222.693 226.572 223.958 231.239 226.484C235.916 229 239.515 232.307 242.031 236.401V223.963H268.947V311.776H242.031V299.338C239.406 303.437 235.76 306.745 231.093 309.255C226.426 311.771 220.994 313.026 214.801 313.026C207.676 313.026 201.176 311.166 195.301 307.443C189.426 303.724 184.781 298.432 181.364 291.568C177.958 284.693 176.26 276.745 176.26 267.713ZM242.031 267.859C242.031 261.151 240.166 255.859 236.447 251.984C232.723 248.099 228.182 246.151 222.822 246.151C217.473 246.151 212.937 248.068 209.218 251.901C205.494 255.724 203.635 260.995 203.635 267.713C203.635 274.422 205.494 279.75 209.218 283.693C212.937 287.625 217.473 289.588 222.822 289.588C228.182 289.588 232.723 287.651 236.447 283.776C240.166 279.89 242.031 274.583 242.031 267.859Z" fill="white"/>
<path d="M355.519 223.026C366.42 223.026 375.102 226.333 381.56 232.943C388.019 239.542 391.248 248.713 391.248 260.463V311.776H364.477V264.088C364.477 258.422 362.982 254.047 359.998 250.963C357.008 247.87 352.894 246.318 347.644 246.318C342.394 246.318 338.274 247.87 335.289 250.963C332.3 254.047 330.81 258.422 330.81 264.088V311.776H304.06V264.088C304.06 258.422 302.56 254.047 299.56 250.963C296.571 247.87 292.456 246.318 287.206 246.318C281.966 246.318 277.852 247.87 274.852 250.963C271.862 254.047 270.373 258.422 270.373 264.088V311.776H243.456V223.963H270.373V234.984C273.091 231.307 276.654 228.396 281.06 226.255C285.477 224.104 290.461 223.026 296.019 223.026C302.628 223.026 308.529 224.443 313.727 227.276C318.92 230.099 322.987 234.13 325.935 239.38C328.977 234.562 333.112 230.63 338.352 227.588C343.602 224.547 349.321 223.026 355.519 223.026Z" fill="white"/>
</g>
<mask id="mask12_389_646" style="mask-type:luminance" maskUnits="userSpaceOnUse" x="381" y="216" width="102" height="108">
<path d="M381.333 216H482.666V324H381.333V216Z" fill="white"/>
</mask>
<g mask="url(#mask12_389_646)">
<mask id="mask13_389_646" style="mask-type:luminance" maskUnits="userSpaceOnUse" x="379" y="215" width="105" height="111">
<path d="M379.854 218.99L479.677 215.589L483.318 322.422L383.5 325.828L379.854 218.99Z" fill="white"/>
</mask>
<g mask="url(#mask13_389_646)">
<mask id="mask14_389_646" style="mask-type:luminance" maskUnits="userSpaceOnUse" x="381" y="217" width="101" height="107">
<path d="M429.766 217.286C402.203 218.229 380.672 242.823 381.672 272.224C382.677 301.62 405.834 324.693 433.396 323.75C460.964 322.812 482.495 298.219 481.49 268.818C480.49 239.417 457.328 216.349 429.766 217.286Z" fill="white"/>
</mask>
<g mask="url(#mask14_389_646)">
<path d="M379.854 218.99L479.677 215.589L483.308 322.031L383.49 325.437L379.854 218.99Z" fill="#4DC591"/>
</g>
</g>
<path d="M385.564 270.651C385.564 261.625 387.262 253.703 390.669 246.88C394.085 240.063 398.731 234.818 404.606 231.151C410.481 227.474 417.033 225.63 424.273 225.63C430.45 225.63 435.877 226.896 440.544 229.422C445.221 231.938 448.82 235.245 451.335 239.339V226.901H478.252V314.714H451.335V302.276C448.71 306.375 445.064 309.682 440.398 312.193C435.731 314.708 430.299 315.964 424.106 315.964C416.981 315.964 410.481 314.104 404.606 310.38C398.731 306.662 394.085 301.37 390.669 294.505C387.262 287.63 385.564 279.682 385.564 270.651ZM451.335 270.797C451.335 264.089 449.471 258.797 445.752 254.922C442.028 251.037 437.486 249.089 432.127 249.089C426.778 249.089 422.242 251.005 418.523 254.839C414.799 258.662 412.939 263.932 412.939 270.651C412.939 277.36 414.799 282.688 418.523 286.63C422.242 290.563 426.778 292.526 432.127 292.526C437.486 292.526 442.028 290.589 445.752 286.714C449.471 282.828 451.335 277.521 451.335 270.797Z" fill="white"/>
</g>
<mask id="mask15_389_646" style="mask-type:luminance" maskUnits="userSpaceOnUse" x="105" y="240" width="57" height="58">
<path d="M105.589 240.964H161.589V297.964H105.589V240.964Z" fill="white"/>
</mask>
<g mask="url(#mask15_389_646)">
<path d="M133.047 225.458C109.234 225.458 89.8594 244.833 89.8594 268.646C89.8594 292.464 109.234 311.833 133.047 311.833C156.865 311.833 176.234 292.464 176.234 268.646C176.234 244.833 156.865 225.458 133.047 225.458ZM173.276 268.646C173.276 290.828 155.229 308.875 133.047 308.875C110.865 308.875 92.8177 290.828 92.8177 268.646C92.8177 246.464 110.865 228.422 133.047 228.422C155.229 228.422 173.276 246.464 173.276 268.646Z" fill="#4DC591"/>
<path d="M107.812 257.964C108.219 256.969 108.958 256.552 110.021 256.646C110.391 256.677 110.776 256.651 111.198 256.651C111.198 260.068 111.198 263.469 111.198 266.891C110.526 266.891 109.854 266.932 109.193 266.88C108.469 266.823 108.13 266.25 107.812 265.682C107.812 263.104 107.812 260.531 107.812 257.964Z" fill="#4DC591"/>
<path d="M158.281 265.672C158.125 265.912 158.015 266.219 157.802 266.375C157.468 266.609 157.078 266.823 156.687 266.88C156.109 266.964 155.505 266.906 154.88 266.906C154.88 263.474 154.88 260.083 154.88 256.672C155.547 256.672 156.182 256.62 156.812 256.688C157.578 256.761 157.989 257.318 158.281 257.969C158.281 260.531 158.281 263.104 158.281 265.672Z" fill="#4DC591"/>
<path d="M115.87 287.505C114.672 287.448 113.75 286.99 113.078 286.073C112.573 285.385 112.422 284.594 112.422 283.76C112.422 277.052 112.422 270.354 112.422 263.651C112.422 260.276 112.443 256.901 112.422 253.526C112.406 250.969 113.136 248.646 114.776 246.682C116.677 244.417 119.12 243.083 122.089 243C125.183 242.912 128.281 242.969 131.375 242.969C135.271 242.969 139.172 242.984 143.068 242.958C144.86 242.953 146.552 243.307 148.125 244.151C149.906 245.115 151.308 246.5 152.287 248.287C153.172 249.912 153.558 251.662 153.547 253.505C153.547 263.49 153.516 273.479 153.573 283.469C153.578 285.698 152.38 287.375 150.099 287.521C150.099 288.568 150.115 289.609 150.089 290.667C150.084 291.13 150.026 291.599 149.906 292.042C149.568 293.266 148.36 294.255 147.084 294.302C145.683 294.354 144.281 294.359 142.88 294.302C141.344 294.234 140.011 292.896 139.901 291.359C139.828 290.281 139.86 289.203 139.854 288.12C139.854 287.927 139.854 287.745 139.854 287.521C135.276 287.521 130.729 287.521 126.125 287.521C126.125 288.583 126.151 289.63 126.12 290.672C126.099 291.146 126.037 291.635 125.901 292.089C125.537 293.302 124.344 294.26 123.084 294.302C121.683 294.354 120.281 294.359 118.88 294.302C117.339 294.234 115.99 292.844 115.912 291.302C115.865 290.208 115.891 289.115 115.88 288.021C115.87 287.865 115.87 287.698 115.87 287.505ZM150.141 253.26C138.683 253.26 127.261 253.26 115.854 253.26C115.854 260.125 115.854 266.958 115.854 273.787C127.302 273.787 138.709 273.787 150.141 273.787C150.141 266.932 150.141 260.12 150.141 253.26ZM126.167 246.375C126.167 247.526 126.167 248.656 126.167 249.792C130.735 249.792 135.271 249.792 139.818 249.792C139.818 248.635 139.818 247.516 139.818 246.375C135.245 246.375 130.709 246.375 126.167 246.375ZM115.854 280.734C115.948 282.667 117.521 284.151 119.401 284.068C121.276 283.984 122.771 282.391 122.703 280.568C122.63 278.635 121.037 277.146 119.156 277.234C117.255 277.333 115.771 278.901 115.854 280.734ZM146.709 284.073C148.584 284.068 150.125 282.531 150.125 280.651C150.13 278.776 148.584 277.234 146.693 277.245C144.802 277.25 143.261 278.792 143.271 280.667C143.287 282.531 144.834 284.073 146.709 284.073Z" fill="#4DC591"/>
</g>
</g>
<defs>
<clipPath id="clip0_389_646">
<rect width="512" height="512" fill="white"/>
</clipPath>
</defs>
</svg>
